# xmcd
#
# Track frame offsets:
#	150
#	15060
#	29707
#	44387
#	53210
#
# Disc length: 906 seconds
#
# Revision: 1
# Processed by: cddbd v1.5.2PL0 Copyright (c) Steve Scherf et al.
# Submitted via: audiograbber 1.83.01
#
DISCID=35038805
DTITLE=Various Artist - CDM-Promo (MTVSCD 006)
DYEAR=1994
DGENRE=Pop
TTITLE0=Heidi Kyrö - Sun Suomineitos Oon
TTITLE1=Mika Pohjoinen - Yhden Illan Jälkeen
TTITLE2=Kaija Pohjola - Ei Turhia Murheita
TTITLE3=Reetta Jakkula - Meille Käy Kaikille Häijysti
TTITLE4=Johanna Raunio - Sun Suomineitos Oon
EXTD=TR.
EXTT0=
EXTT1=
EXTT2=
EXTT3=
EXTT4=
PLAYORDER=
